<?xml version="1.0" standalone="no"?><!-- Generator: Gravit.io --><svg xmlns="http://www.w3.org/2000/svg" xmlns:xlink="http://www.w3.org/1999/xlink" style="isolation:isolate" viewBox="0 0 389 101" width="389" height="101">
<defs>

<style>
@import url('https://fonts.googleapis.com/css?family=Orbitron');
</style> 
 
<clipPath id="_clipPath_ofgeuBNZtctalxZdurgFFBQL75uIn1g5"><rect width="389" height="101"/></clipPath></defs><g clip-path="url(#_clipPath_ofgeuBNZtctalxZdurgFFBQL75uIn1g5)"><path d=" M 7 50.5 L 7 50.5 Z  M 32.918 39.937 C 34.216 41.425 35 43.372 35 45.5 C 35 45.732 34.991 45.963 34.976 46.192 C 33.102 45.566 31.183 45.01 29.221 44.521 C 30.341 42.916 31.573 41.388 32.918 39.937 Z  M 29.899 37.737 C 28.867 37.255 27.713 37 26.5 37 C 22.814 37 19.673 39.351 18.508 42.641 C 20.789 42.892 23.017 43.227 25.194 43.642 C 26.593 41.559 28.163 39.592 29.899 37.737 Z  M 20.743 51.723 C 19.237 50.361 18.239 48.457 18.028 46.325 C 19.756 46.476 21.454 46.684 23.114 46.961 C 22.244 48.495 21.452 50.081 20.743 51.723 Z  M 24.152 53.68 C 24.901 53.886 25.687 54 26.5 54 C 29.709 54 32.504 52.218 33.959 49.596 C 31.746 48.851 29.472 48.221 27.13 47.72 C 26.006 49.618 25.01 51.604 24.152 53.68 Z  M 7 50.5 L 7 50.5 Z  M 79.392 15.842 C 71.763 9.685 62.058 6 51.5 6 C 47.999 6 44.592 6.405 41.323 7.17 C 46.166 9.697 50.521 12.358 54.378 15.14 C 55.871 13.806 57.842 13 60 13 C 63.436 13 66.398 15.043 67.716 17.99 C 71.419 17.137 75.311 16.42 79.392 15.842 Z  M 82.731 18.823 C 90.923 26.89 96 38.107 96 50.5 C 96 65.119 88.935 78.102 78.036 86.216 L 78 86 C 76.784 83.505 75.5 81.115 74.145 78.837 C 75.9 77.288 77 75.021 77 72.5 C 77 69.858 75.792 67.497 73.908 65.928 C 79.357 51.808 76.887 38.384 66.859 26.484 C 67.897 25.093 68.5 23.367 68.5 21.5 C 68.5 21.395 68.498 21.29 68.489 21.186 C 72.934 20.166 77.687 19.379 82.731 18.823 Z  M 75.177 88.177 C 68.517 92.373 60.67 94.853 52.258 94.994 C 57.617 90.136 62.08 85.293 65.65 80.496 C 66.536 80.826 67.498 81 68.5 81 C 69.342 81 70.156 80.877 70.927 80.652 C 72.346 82.984 73.704 85.433 75 88 L 75.177 88.177 Z  M 52.926 26.164 C 54.426 28.481 57.037 30 60 30 C 61.667 30 63.222 29.519 64.521 28.671 C 73.477 39.531 75.795 51.518 70.93 64.349 C 70.159 64.123 69.344 64 68.5 64 C 66.909 64 65.42 64.438 64.154 65.21 C 54.716 54.842 43.069 47.946 29.21 44.537 C 34.714 36.734 42.642 30.581 52.926 26.164 Z  M 51.675 23.084 C 51.551 22.577 51.5 22.044 51.5 21.5 C 51.5 20.058 51.86 18.7 52.488 17.506 C 48.15 14.293 43.141 11.207 37.488 8.256 C 22.375 13.271 10.847 26.178 7.797 42.081 L 8 42 C 14.049 42.046 19.781 42.593 25.187 43.653 C 31.152 34.841 40.014 27.973 51.675 23.084 Z  M 19.996 81.928 C 27.152 89.087 36.73 93.83 47.39 94.805 C 53.658 89.344 58.765 83.979 62.746 78.728 C 61.052 77.188 60 74.966 60 72.5 C 60 70.765 60.521 69.152 61.435 67.822 C 51.985 57.372 40.554 50.668 27.13 47.72 C 21.597 57.063 19.187 68.508 19.996 81.928 Z  M 16 77.323 C 10.352 69.863 7 60.57 7 50.5 C 7 48.978 7.077 47.473 7.242 45.994 C 12.801 45.812 18.095 46.128 23.118 46.955 C 18.33 55.384 15.935 65.409 16 77 L 16 77.323 Z " fill-rule="evenodd" fill="rgb(68,175,209)"/><g transform="matrix(1,0,0,1,109,30)"><text transform="matrix(1,0,0,1,0,39)" style="font-family:&quot;Orbitron&quot;;font-weight:700;font-size:52px;font-style:normal;fill:#44afd1;stroke:none;">Org-tech</text></g></g></svg>
